<?xml version="1.0" standalone="no"?>
<!DOCTYPE svg PUBLIC "-//W3C//DTD SVG 1.1//EN" "http://www.w3.org/Graphics/SVG/1.1/DTD/svg11.dtd" >
<!--
2013-9-30: Created.
-->
<svg>
<metadata>
Created by iconfont
</metadata>
<defs>

<font id="iconfont" horiz-adv-x="1024" >
  <font-face
    font-family="iconfont"
    font-weight="500"
    font-stretch="normal"
    units-per-em="1024"
    ascent="896"
    descent="-128"
  />
    <missing-glyph />
    
    <glyph glyph-name="x" unicode="x" horiz-adv-x="1001"
d="M281 543q-27 -1 -53 -1h-83q-18 0 -36.5 -6t-32.5 -18.5t-23 -32t-9 -45.5v-76h912v41q0 16 -0.5 30t-0.5 18q0 13 -5 29t-17 29.5t-31.5 22.5t-49.5 9h-133v-97h-438v97zM955 310v-52q0 -23 0.5 -52t0.5 -58t-10.5 -47.5t-26 -30t-33 -16t-31.5 -4.5q-14 -1 -29.5 -0.5
t-29.5 0.5h-32l-45 128h-439l-44 -128h-29h-34q-20 0 -45 1q-25 0 -41 9.5t-25.5 23t-13.5 29.5t-4 30v167h911zM163 247q-12 0 -21 -8.5t-9 -21.5t9 -21.5t21 -8.5q13 0 22 8.5t9 21.5t-9 21.5t-22 8.5zM316 123q-8 -26 -14 -48q-5 -19 -10.5 -37t-7.5 -25t-3 -15t1 -14.5
t9.5 -10.5t21.5 -4h37h67h81h80h64h36q23 0 34 12t2 38q-5 13 -9.5 30.5t-9.5 34.5q-5 19 -11 39h-368zM336 498v228q0 11 2.5 23t10 21.5t20.5 15.5t34 6h188q31 0 51.5 -14.5t20.5 -52.5v-227h-327z" />
    

    
    <glyph glyph-name="report-management" unicode="&#58982;" d="M66.741054 799.57488h890.517892v-59.368132H66.741054zM66.741054 87.16036099999997h356.206747V27.793252000000052h-59.368132v-59.368132h296.839639V27.793252000000052h-59.368133v59.367109h356.207771v59.368133H66.741054zM66.741054 205.89662599999997h890.517892V680.839639H66.741054v-474.943013z m419.748946 355.627557l55.194066-110.967325 265.358647 202.39564 62.961984-62.961984-328.320631-265.358646-63.542198 119.315456-206.570729-154.941862-53.454446 71.252811 268.373307 201.26591z"  horiz-adv-x="1024" />

    
    <glyph glyph-name="search" unicode="&#58983;" d="M703.138248 304.43998999999997c19.081591 41.942251 29.989011 88.354304 29.989012 137.353274 0 183.702905-149.488663 333.191568-333.191568 333.191568S66.741054 625.49617 66.741054 441.793264s149.492756-333.195661 333.195661-333.195661c83.35443 0 159.471015 30.999015 217.96729 81.785701l258.710227-197.368136 80.644714 117.564579L703.138248 304.43998999999997z m-82.582857 49.134047l-58.120722-84.729753c-42.60433-40.044018-99.532901-65.048505-162.498977-65.048506-131.269719 0-237.997486 106.726743-237.997486 237.997486s106.726743 237.993392 237.997486 237.993393c131.266649 0 237.993392-106.723673 237.993392-237.993393 0.001023-31.218002-6.407943-60.881602-17.373693-88.219227z"  horiz-adv-x="1024" />

    
    <glyph glyph-name="help" unicode="&#58985;" d="M644.033106 586.3843830000001c-33.225729 29.312606-77.603449 44.198641-131.905193 44.198642-51.999304 0-95.04775-14.732539-127.93988-43.789319-33.353642-29.491685-51.589982-66.016553-54.148248-108.526739l-1.483794-24.554232 124.922151-15.474437 5.064342 23.378454c4.092201 18.928095 11.100826 32.688493 20.845771 40.924061 19.387559 16.369829 55.42738 15.397688 71.311139 1.227968 7.469112-6.67605 10.793834-13.555737 10.793834-22.303982 0-5.959735-1.841951-11.177574-5.524831-16.114003-0.920976-1.151219-7.085372-8.286734-39.543621-34.709523-27.52182-22.38073-45.708018-42.638099-55.555294-61.847603-9.406231-18.195408-13.850449-40.390919-14.54732-66.681702h129.017422c0.87902 7.023974 1.998517 10.17678 2.24104 10.691503 0.665149 1.381463 4.936429 9.054213 25.986861 26.524097 36.729529 30.565133 60.363809 54.583153 72.206532 73.382311 13.045107 20.666692 19.668968 42.996257 19.668969 66.37471 0.001023 40.977273-17.289782 77.067236-51.40988 107.299794zM446.060195 137.41697499999998h135.997394V249.728924H445.842231zM512 829.258946c-245.496274 0-445.258946-199.73709-445.258946-445.258946S266.503726-61.25894600000004 512-61.25894600000004s445.258946 199.73709 445.258946 445.258946S757.496274 829.258946 512 829.258946z m0-785.750781c-187.740872 0-340.491835 152.750963-340.491835 340.491835S324.259128 724.491835 512 724.491835 852.491835 571.741895 852.491835 384 699.740872 43.50816499999996 512 43.50816499999996z"  horiz-adv-x="1024" />

    
    <glyph glyph-name="export" unicode="&#58986;" d="M719.356628 829.258946H94.569866V-61.25894600000004H428.513564v111.315248H205.884091V717.944721h445.258946v-166.972872h166.972872v-166.971849h111.314225V662.287097zM706.800661 328.34237599999994H428.513564v-166.971849h278.287097v-111.314225l222.629473 222.629473-222.629473 166.971849z"  horiz-adv-x="1024" />

    
    <glyph glyph-name="purchase" unicode="&#58987;" d="M927.083693 188.04811900000004C874.916567 318.514543 793.429671 459.825966 688.926572 553.762405v1.400906c-32.457226 28.703739-54.101175 43.280736-54.101176 43.280736H389.223722s-21.583574-14.630209-54.039777-43.280736v-1.237177c-104.548124-93.957929-186.074929-235.305167-238.267638-365.832989-23.99653-60.369949-7.1744-140.937916 26.573215-182.707229 60.210313-74.508971 137.295969-66.379826 144.920624-66.379826h487.126496c7.735172 0 84.759429-8.17724 144.973836 66.379826 33.751708 41.7161 50.565652 122.276904 26.573215 182.662203zM613.241822 115.77711899999997c-17.875113-20.071128-43.723827-31.899524-77.581959-35.545564v-51.405787h-43.170219v51.250244c-56.342216 5.760191-91.212398 38.557154-104.728226 98.262978L454.420607 195.717799c6.117324-37.508265 26.577309-56.342216 61.279668-56.342216 16.257266 0 28.204365 3.974521 35.878139 12.106736a40.74396 40.74396 0 0 1 11.438517 29.101805c0 11.824303-3.813862 20.74344-11.438517 26.745131-7.673773 6.100952-24.722054 13.84431-51.069119 23.144116-23.714098 8.181333-42.215474 16.261359-55.56041 24.438599a92.266403 92.266403 0 0 0-32.404014 33.637098 99.897198 99.897198 0 0 0-12.503779 50.631144c0 25.12319 7.460925 47.821145 22.258957 68.00279 14.97097 20.013823 38.291095 32.292474 70.190618 36.832883v39.749306h43.104727v-39.749306c48.160883-5.776563 79.441307-33.022091 93.572142-81.743746l-59.427484-24.319895c-11.491729 33.292244-29.376051 50.053999-53.655014 50.054a38.923498 38.923498 0 0 1-29.26144-11.21339 36.710087 36.710087 0 0 1-11.102873-27.065425c0-10.828626 3.535523-19.181875 10.652618-24.947182 7.062859-5.780657 22.258956-13.016455 45.641503-21.481244 25.557072-9.304923 45.629223-18.215874 60.202127-26.573215 14.638395-8.234545 26.188452-19.850094 34.935674-34.427091 8.624425-14.679327 13.000082-31.723515 13.000081-51.344388 0.00307-30.04427-8.969279-55.093782-26.910906-75.17719zM396.455427 641.980609h237.533928s82.358753 117.78152 87.738274 129.949654c5.440919 12.278651 14.294564 40.139186-17.662265 46.308699-32.010041 6.109138-53.085032 13.511735-70.805626 10.201339-17.658172-3.363607-44.174082-24.217564-112.238271-27.077705-66.765613-2.860141-77.30669 26.851555-112.738667 26.012444-23.099091-0.560772-69.739341-3.699252-82.632999-8.464789-12.950963-4.764514-34.70236-20.403702-14.294564-52.417837 20.461007-31.959899 85.10019-124.511805 85.10019-124.511805z"  horiz-adv-x="1024" />

    
    <glyph glyph-name="publish" unicode="&#58988;" d="M418.067654-47.35323900000003l149.58997 139.160434-149.58997 76.516697zM66.741054 342.24808399999995l297.407573-120.005165 453.983655 426.13847-346.145601-426.13847 377.434212-107.838053L957.258946 815.353239z"  horiz-adv-x="1024" />

    
    <glyph glyph-name="list" unicode="&#58989;" d="M363.579669 755.049804h593.679277v-148.419307H363.579669zM363.579669 458.210166h593.679277v-148.419308H363.579669zM363.579669 161.37052700000004h593.679277v-148.419308H363.579669zM66.741054 755.049804h148.419307v-148.419307H66.741054zM66.741054 458.210166h148.419307v-148.419308H66.741054zM66.741054 161.37052700000004h148.419307v-148.419308H66.741054z"  horiz-adv-x="1024" />

    
    <glyph glyph-name="close" unicode="&#58990;" d="M845.581448 634.1860859999999l-83.395362 83.395362L512 467.395362 261.813914 717.581448l-83.395362-83.395362 250.186086-250.186086-250.186086-250.186086 83.395362-83.395362 250.186086 250.186086L762.186086 50.41855199999998l83.395362 83.395362-250.186086 250.186086z"  horiz-adv-x="1024" />

    
    <glyph glyph-name="basic-dataefore" unicode="&#58991;" d="M350.136495 479.844905c-32.275077 0-58.456367-26.042119-58.456366-58.174957 0-32.099069 26.181289-58.174957 58.456366-58.174958 32.272008 0 58.456367 26.075889 58.456367 58.174958 0.001023 32.106232-26.170033 58.174957-58.456367 58.174957zM901.601322 662.287097H512l-55.657624 111.315249H122.397654l-55.657624-55.657625v-667.888419l55.657624-55.657624h779.203668l55.657624 55.657624V606.629473l-55.657624 55.657624zM233.712903 421.795814l55.429427 105.305371h121.404024l55.423287-105.305371-55.423287-105.315604H289.14233l-55.429427 105.315604z m443.251219-371.739512L565.258994 176.4602c-76.855412-35.322483-139.296533-56.870242-202.049762 5.89015-28.351722 28.351722-46.52564 62.978357-54.784744 99.500155h103.110379l16.814968-16.808827c7.640004-7.643074 21.146623-6.484691 30.172183 2.530636l114.500801 114.487497c9.025561 9.029654 10.17371 22.552645 2.523473 30.202883L457.378985 530.426931c69.728084 19.264762 147.099243 1.953492 201.475688-52.427047 62.764486-62.754253 41.358967-125.062344 6.02625-201.931059l130.079614-108.016109-117.996415-117.996414z"  horiz-adv-x="1024" />

    
    <glyph glyph-name="project" unicode="&#58992;" d="M683.009815 318.354907c-13.376659 13.659091-35.035958 13.659091-48.412616 0l-26.13831-26.714431-43.732014 44.85765 61.304228 68.424393c84.801385-48.874127 193.95234-37.373189 266.177292 36.405141 65.587787 66.994834 81.507362 165.351955 48.080041 247.756757L796.178271 543.9243389999999l-120.995725 123.615389L819.011302 812.427606c-80.431867 33.519418-176.158069 16.969487-241.419421-49.699935-78.692247-80.382748-85.34476-205.584262-21.512967-294.494221l-65.315588-55.879682-224.449934 230.210126-0.907673 70.109777-133.36545 83.361593-65.299215-66.799382 81.06734-133.219117 70.050426-0.02763L439.769932 368.706689 105.673761 82.86042899999995c-26.742061-27.318182-26.742061-71.588455 0-98.900498l24.198122-24.730241c26.730805-27.312042 70.071915-27.312042 96.80272 0l293.298999 327.323931 41.699727-42.710754-23.876803-24.382317c-13.360286-13.659091-13.360286-35.791158 0-49.438993l212.068953-218.818681c13.370519-13.659091 35.035958-13.659091 48.396244 0l96.812952 98.895381c13.365402 13.659091 13.365402 35.780925 0 49.438993L683.009815 318.354907zM186.023764-1.463072000000011c-13.381775-13.652951-35.047214-13.652951-48.417733 0-13.354146 13.659091-13.354146 35.80753 0 49.461505 13.370519 13.659091 35.035958 13.659091 48.417733 0 13.359262-13.653975 13.359262-35.802414 0-49.461505z"  horiz-adv-x="1024" />

    
    <glyph glyph-name="usage" unicode="&#58993;" d="M931.310971-35.255713000000014c-34.790364-34.685987-91.085508-34.685987-125.875872 0L557.333488 212.93492600000002c-59.397808-15.672958-124.896568-0.935302-171.427324 45.595454-46.61876 46.574758-61.35744 112.11752-45.684482 171.471327l108.511389-108.511389 125.875872 125.875872-108.466364 108.511389c59.353806 15.628956 124.896568 0.890276 171.427325-45.639456s61.268412-112.073518 45.595454-171.427325l247.87853-248.234641c34.909068-34.685987 34.909068-91.189885 0.267083-125.875872v0.044002z m-345.525478-25.86918H438.09171l-47.197952 110.425995c-11.443633 4.764514-18.567891 7.569396-29.966499 12.333909l-111.583354-44.615126-104.503099 104.459096 44.660152 111.405299a3638.467519 3638.467519 0 0 0-12.333909 29.921474L66.741054 310.314791V458.0536l110.425995 47.242977c4.14132 9.974166 8.281617 19.948331 12.333909 29.921473l-44.660152 111.405299 104.503099 104.503099 111.360274-44.660152c11.621688 4.986571 18.522865 7.836479 30.144554 12.600992L438.09171 829.270203h147.738809l47.197952-110.202915c11.665691-4.986571 18.567891-7.836479 30.188556-12.600992l111.360274 44.660152 104.503098-104.503099-44.660152-111.405299c4.986571-11.576663 7.836479-18.522865 12.600993-30.144554l110.158912-47.286979v-147.693784l-83.576487-35.888372-95.954399 95.954399a267.515776 267.515776 0 0 1-77.164451 203.085348 263.020392 263.020392 0 0 1-187.812503 77.654615c-23.287379 0-46.529733-3.116991-69.104891-9.038864-92.547813-24.409946-164.826999-96.690156-189.236945-189.236945-24.222681-91.947132 1.914606-190.528358 68.61575-257.273505a263.020392 263.020392 0 0 1 203.040323-77.16445l95.687316-95.732342-35.843346-83.576487h-0.045026z"  horiz-adv-x="1024" />

    
    <glyph glyph-name="configure" unicode="&#58994;" d="M122.397654 829.258946v-890.517892h779.203668V829.258946H122.397654z m333.944722-389.601322H178.055279v55.657624h278.287097v-55.657624z m0 111.314225H178.055279v55.657624h278.287097v-55.657624z m0 111.315248H178.055279v55.657624h278.287097v-55.657624z m389.601322-667.888419H512V773.602346h333.944721v-779.203668z"  horiz-adv-x="1024" />

    
    <glyph glyph-name="calendar" unicode="&#58995;" d="M893.650233 733.8469v-63.608713H702.825117v63.608713H321.174883v-63.608713h-190.826139v63.608713h-63.608714v-763.30149h890.517893V733.8469h-63.60769z m0-699.692776H130.348744V606.629473h763.301489v-572.475349zM257.56617 479.41307h127.216403v-127.216403H257.56617zM448.391287 479.41307h127.216403v-127.216403H448.391287zM639.216403 479.41307h127.216404v-127.216403H639.216403zM257.56617 288.58795299999997h127.216403v-127.216403H257.56617zM448.391287 288.58795299999997h127.216403v-127.216403H448.391287zM639.216403 288.58795299999997h127.216404v-127.216403H639.216403zM130.348744 797.45459h190.825116v-63.608714H130.348744zM702.825117 797.45459h190.825116v-63.608714H702.825117z"  horiz-adv-x="1024" />

    
    <glyph glyph-name="task" unicode="&#58996;" d="M678.971849 773.601322h-55.657624v55.657624H400.684752v-55.657624h-55.657624v-111.315248h333.944721v111.315248z m-111.314225-55.656601h-111.315248v55.657625h111.314225v-55.657625zM734.629473 717.944721v-111.315248H289.370527v111.315248h-166.972873v-779.203667h779.203668V717.944721H734.629473z m-55.657624-500.91657H233.712903v55.657624h445.258946v-55.657624z m111.315248 111.314225H233.712903v55.657624h556.574194v-55.657624z m0 111.315248H233.712903v55.657624h556.574194v-55.657624z"  horiz-adv-x="1024" />

    
    <glyph glyph-name="delete" unicode="&#58997;" d="M678.971849 773.601322v55.657624H345.027128v-55.657624H122.397654v-111.314225h779.203668V773.601322zM235.568157-61.25894600000004h552.863686l57.512878 667.888419H178.055279l57.512878-667.888419z m387.746068 556.574194h111.315248l-55.657624-445.258946h-55.657624V495.315248z m-166.971849 0h111.314225v-445.258946H456.342376V495.315248z m-55.657624 0v-445.258946h-55.657624l-55.657625 445.258946h111.315249z"  horiz-adv-x="1024" />

    
    <glyph glyph-name="home" unicode="&#58998;" d="M950.531731 377.87960599999997l0.002047 0.002046L512.019443 788.298046 73.494874 379.09119999999996c-8.574283-8.012488-9.058306-21.473057-1.032515-30.048363 8.002254-8.574283 21.466917-9.052167 30.0412-1.036609l6.810102 6.354731 77.311807-3.198855c-0.146333-1.01205-0.597611-1.915629-0.597611-2.968611v-368.488469l214.656895-0.00307V202.33142699999996h222.629473v-222.629473h214.663034v368.492562c0 0.669242-0.319272 1.233084-0.380669 1.889023h80.42368l3.460822-3.238764a21.118993 21.118993 0 0 1 14.503319-5.735631h0.059351c6.102998 0 11.604292 2.583848 15.467274 6.712889 8.02886 8.586562 7.594979 22.038946-0.979305 30.057573z"  horiz-adv-x="1024" />

    
    <glyph glyph-name="document" unicode="&#58999;" d="M733.35034 829.258946H197.699688v-785.751804h733.366713V410.191522 672.10879L733.35034 829.258946zM302.465776 619.7257460000001h314.300313v-52.383044H302.465776v52.383044z m471.451492-366.68438H302.465776v52.383044h471.450469v-52.383044z m0 157.150156H302.465776v52.383044h471.450469v-52.383044zM669.150156 567.341678V776.875902L878.683357 567.341678H669.150156zM145.31562 776.875902h-52.383044v-838.134848h785.750781v52.383044H145.31562z"  horiz-adv-x="1024" />

    
    <glyph glyph-name="refresh" unicode="&#59000;" d="M954.002786 406.693862H809.017694c-1.456165 9.368368-2.910283 17.278525-3.891633 25.24701-18.216897 147.767462-124.635625 271.101441-268.279163 310.158992-21.177322 5.758144-42.928718 9.403161-64.414055 14.025435h-66.449412c-23.258727-4.811586-46.88482-8.30413-69.717851-14.648628C194.061834 701.957609 88.035032 578.137559 70.133314 431.810912c-0.61603-5.039783-2.238994-9.955746-3.39226-14.930037v-62.952774c1.156336-4.980431 2.781346-9.902534 3.399423-14.949481 17.918092-146.475026 124.146485-270.751471 266.822998-309.509192 32.007995-8.695033 65.542762-11.764951 99.368148-17.59575V143.853571c-144.465253 2.067079-258.673387 129.800251-236.114602 278.770098 19.86749 131.200134 145.047514 221.278709 276.442076 199.943798 107.537202-17.460674 210.466456-129.244596 197.040679-216.265532H534.543436L745.612619 194.367035l211.648374 207.443609-3.258207 4.883218z"  horiz-adv-x="1024" />

    
    <glyph glyph-name="notice" unicode="&#59001;" d="M697.887664 571.530071c-19.0908 9.032724-41.783639 0.805342-51.064002-18.194385-9.251711-19.061125-1.245364-42.1244 17.69194-51.65445 2.453888-1.274016 60.442604-31.4155 60.442604-117.252471 0-91.701538-54.233182-122.092709-56.032154-123.087362-19.123546-9.558703-26.886347-32.846082-17.322527-51.967582 6.830569-13.594623 20.458961-21.419845 34.707476-21.419846 5.802146 0 11.733229 1.306762 17.261129 4.068666 4.03592 2.046612 98.81147 51.096748 98.81147 192.407148-0.001023 136.340201-100.244099 185.082322-104.495936 187.100282zM818.431088 685.239855c-17.848507 11.45796-41.538045 6.242168-53.209876-11.576663-11.609409-17.820877-6.517437-41.783639 11.235902-53.517891 4.192485-2.765997 103.377462-70.347185 103.377462-238.572583 0-168.595836-95.15008-236.242516-98.934266-238.820224-17.820877-11.888771-22.599717-35.885302-10.743692-53.702086 7.451716-11.17962 19.744693-17.232476 32.253588-17.232477 7.355525 0 14.839986 2.146896 21.452591 6.522554 5.433756 3.599991 133.395126 91.327008 133.395126 303.263955 0.001023 212.337059-133.148509 300.005748-138.826835 303.635415zM289.370527 550.971849H66.741054c5.217838 0 0-333.944721 0-333.944721h222.629473l222.629473-222.629474h55.657624V773.602346h-55.657624l-222.629473-222.630497z"  horiz-adv-x="1024" />

    
    <glyph glyph-name="image" unicode="&#59002;" d="M66.741054 829.258946v-890.517892h890.517892V829.258946H66.741054z m779.202644-779.202644H178.055279V717.944721h667.888419v-667.888419zM678.971849 439.657624L567.657624 272.68577500000004 233.712903 662.287097v-556.574194h556.574194zM623.314225 606.629473h111.315248v-111.315248h-111.315248z"  horiz-adv-x="1024" />

    
    <glyph glyph-name="feedback" unicode="&#59003;" d="M901.601322 829.258946H122.397654l-55.657624-55.657624v-834.860268l166.971849 166.971849h667.88842l55.657624 55.657624V773.602346l-55.656601 55.6566zM567.657624 217.02815099999998h-111.315248v111.315248h111.315248v-111.315248z m0 166.971849h-111.315248V717.944721h111.315248v-333.944721z"  horiz-adv-x="1024" />

    
    <glyph glyph-name="complete" unicode="&#59004;" d="M604.14463 123.87556400000005L422.431032 324.02095399999996l-72.630181-78.850859L531.517519 45.025728999999956l-1.215688-1.369184 72.629158-81.770352L957.258946 360.80778799999996l-72.626087 78.849836zM845.943698 829.258946H66.741054v-890.517892h278.286074v111.315248H178.055279V717.944721h667.888419v-166.972872h111.315248V829.258946z"  horiz-adv-x="1024" />

    
    <glyph glyph-name="management" unicode="&#59005;" d="M612.541881 360.653269v51.128471L520.508791 464.190367l31.953759 92.033089-40.899502 40.901549-89.474824-29.399587-44.7369 90.756004H309.605384l-39.62958-97.145528-102.257965 35.789111-43.457767-43.459814 25.566282-99.701746-83.087347-42.180682v-65.189721L163.886581 301.85511799999995l-28.120454-86.918605 43.457767-43.459814 106.095364 25.564235 34.512024-74.137511h57.521065l37.066197 74.137511 90.114391-18.535145 41.543161 41.543162-24.287149 97.145527 90.752934 43.458791z m-273.53998-66.466807c-49.418526 0-89.474824 40.058344-89.474824 89.474824s40.055275 89.476871 89.474824 89.47687c49.418526 0 89.474824-40.060391 89.474824-89.47687 0-49.41648-40.056298-89.474824-89.474824-89.474824zM628.158556 517.0032l24.810059-24.812106 60.570517 14.595417 19.703761-42.325991h32.83892l21.161972 42.325991 51.446719-10.58201 23.717168 23.717168-13.865799 55.461149 51.812039 24.810059v29.18981l-52.54268 29.920449 18.24248 52.542681-23.349801 23.350824-51.081399-16.784269-25.540699 51.813063h-38.676882l-22.624276-55.461149-58.379619 20.432355-24.810059-24.812106 14.59644-56.920384-47.435359-24.081464v-37.217647l55.461149-25.540699-16.054651-49.621141zM744.188176 664.412504c28.213575 0 51.081399-22.870894 51.081399-51.083445s-22.867824-51.081399-51.081399-51.081399c-28.213575 0-51.081399 22.86987-51.081398 51.081399-0.001023 28.212552 22.867824 51.083445 51.081398 51.083445zM957.258946 193.10529899999995l-62.230319 35.437093 21.606087 62.23032-27.65485 27.656897-60.499909-19.87977-30.249955 61.36665h-45.807279l-26.796296-65.687049-69.143776 24.200169-29.385261-29.386284 17.287735-67.415413-56.181557-28.52159v-44.078915l65.687048-30.249954-19.014052-58.771545 29.38526-29.386284 71.738882 17.285688 23.336497-50.129724h38.893822l25.062816 50.129724 60.932767-12.533454 28.090779 28.090778-16.422018 65.687049 61.364603 29.38526v34.570354z m-184.960548-79.514985c-33.416064 0-60.499909 27.085892-60.499909 60.499909s27.084868 60.501956 60.499909 60.501956c33.416064 0 60.499909-27.087938 60.499909-60.501956 0-33.414017-27.083845-60.499909-60.499909-60.499909z"  horiz-adv-x="1024" />

    
    <glyph glyph-name="interface" unicode="&#59006;" d="M883.016035 458.242911V755.016035c0 40.848337-33.394574 74.242911-74.242911 74.242911H215.127615c-40.848337 0-74.242911-33.394574-74.242911-74.242911v-296.872384H66.741054v-296.773124l185.558159-111.315248v-111.315249h519.501858v111.315249l185.457875 111.315248V458.242911h-74.242911z m-482.331283-408.186609l-111.315249 111.315248h74.242912V346.92868599999997h74.242911v-185.558159h74.143651L400.684752 50.05630199999996z m259.70181 37.071313H586.143651V272.68577500000004h-74.143651l111.315248 111.315248 111.315249-111.315248h-74.242912v-185.55816z m111.314225 408.187633H660.386562V643.70181h-111.315248v-148.386562H474.828402V643.70181H363.513154v-148.386562H252.197906V717.944721h519.501858v-222.629473z"  horiz-adv-x="1024" />

    
    <glyph glyph-name="download" unicode="&#59007;" d="M564.383044 593.534224H459.615932v-209.534224H302.465776l209.534224-209.5332 209.5332 209.5332H564.383044zM512 829.258946c-245.496274 0-445.258946-199.73709-445.258946-445.258946S266.503726-61.25894600000004 512-61.25894600000004s445.258946 199.73709 445.258946 445.258946S757.496274 829.258946 512 829.258946z m0-785.750781c-187.740872 0-340.491835 152.750963-340.491835 340.491835S324.259128 724.491835 512 724.491835 852.491835 571.741895 852.491835 384 699.740872 43.50816499999996 512 43.50816499999996z"  horiz-adv-x="1024" />

    
    <glyph glyph-name="expand-rightefore" unicode="&#59008;" d="M745.064127 580.494233l212.194819-187.931207-212.194819-187.931206zM66.741054 773.601322h878.886994v-111.315248H66.741054zM66.741054 550.971849h600.599897v-111.314225H66.741054zM66.741054 328.34237599999994h600.599897v-111.315248H66.741054zM66.741054 105.71290299999998h878.886994v-111.314225H66.741054z"  horiz-adv-x="1024" />

    
    <glyph glyph-name="collapse-leftefore" unicode="&#59009;" d="M278.935873 580.494233L66.741054 392.563026l212.194819-187.931206zM78.371952 773.601322h878.886994v-111.315248H78.371952zM356.659049 550.971849h600.599897v-111.314225H356.659049zM356.659049 328.34237599999994h600.599897v-111.315248H356.659049zM78.371952 105.71290299999998h878.886994v-111.314225H78.371952z"  horiz-adv-x="1024" />

    
    <glyph glyph-name="create" unicode="&#59010;" d="M957.258946 447.608713H575.608713V829.258946h-127.217426v-381.650233H66.741054v-127.217426h381.650233v-381.650233h127.217426V320.39128700000003h381.650233z"  horiz-adv-x="1024" />

    
    <glyph glyph-name="edit" unicode="&#59011;" d="M726.936257 619.994875c14.074553 19.10001 10.003841 45.979194-9.096169 60.053748L562.212612 794.68757c-19.09694 14.074553-45.989427 10.003841-60.069097-9.096169l-12.741186-17.284665 224.793766-165.597549 12.740162 17.285688zM66.830081-16.830061c-1.231037-12.041244 10.455119-20.874423 21.689998-15.97381 13.406335 5.834892 139.319046 60.788481 197.947328 86.404905L90.655719 197.84218299999998c-7.347339-65.09967-22.738887-204.041116-23.825638-214.672244zM471.567125 744.104521L109.692285 253.16620899999998l224.793765-165.597549 361.868701 490.944452-224.787626 165.591409zM353.075431 199.916425c-8.408507-11.653411-24.660656-14.294564-36.291554-5.90857-11.641131 8.385994-14.256702 24.650423-5.851265 36.304857l243.587807 337.764723c8.402367 11.660574 24.653493 14.307867 36.297694 5.90857 11.634991-8.385994 14.256702-24.644283 5.844102-36.301787L353.075431 199.916425zM642.958634 226.84984399999996h314.300312v-104.767112H642.958634zM433.42441 69.69968800000004h523.834536v-104.767112H433.42441z"  horiz-adv-x="1024" />

    
    <glyph glyph-name="password" unicode="&#59012;" d="M459.615932 305.425434h104.767112v-157.150157H459.615932zM878.683357 514.9586340000001h-104.766089V672.10879c0 86.657662-70.492494 157.150156-157.150156 157.150156H407.232888c-86.657662 0-157.150156-70.492494-157.150156-157.150156V514.9586340000001H92.932576v-576.218604H931.067424V514.9586340000001h-52.384067zM354.849844 672.10879c0 28.903284 23.480784 52.383044 52.383044 52.383045h209.533201c28.903284 0 52.383044-23.480784 52.383044-52.383045V514.9586340000001H354.849844V672.10879z m471.450468-628.600625H197.699688V410.191522H826.300312v-366.683357z"  horiz-adv-x="1024" />

    
    <glyph glyph-name="usage-management" unicode="&#59013;" d="M278.003642 118.34050100000002c-8.346085-8.53335-8.346085-22.376637 0-30.913057 8.356318-8.53335 21.897729-8.53335 30.26121 0 8.350179 8.53642 8.350179 22.379707 0 30.913057-8.363482 8.53642-21.903869 8.53642-30.26121 0zM901.601322 662.287097H512l-55.657624 111.315249H122.397654l-55.657624-55.657625v-667.888419l55.657624-55.657624h779.203668l55.657624 55.657624V606.629473l-55.657624 55.657624z m-329.314261-391.670447l16.336061 16.696264c8.360412 8.53642 21.897729 8.53642 30.257117 0l132.539642-136.761804c8.353248-8.53642 8.353248-22.36231 0-30.899754l-60.508095-61.809741c-8.350179-8.53642-21.890566-8.53642-30.247908 0L528.122189 194.60444199999995c-8.350179 8.53028-8.350179 22.363334 0 30.899754L543.045063 240.74327200000005l-26.062585 26.693966-183.310979-204.578352c-16.706497-17.069771-43.794435-17.069771-60.501956 0l-15.123442 15.45704c-16.71366 17.069771-16.71366 44.738947 0 61.812811L466.856847 318.783673 328.160995 460.834946l-43.781133 0.017396-50.666959 83.262332 40.812521 41.74987 83.353406-52.100612 0.566912-43.818995L498.727719 346.06194600000003l40.822754 34.925441c-39.894615 55.568596-35.736922 133.819798 13.44522 184.059016 40.787962 41.668005 100.617605 52.012607 150.887522 31.062459l-89.893356-90.555435 75.622328-77.259618 90.069365 90.725304c20.891819-51.503001 10.942213-112.976074-30.05041-154.847717-45.140083-46.111201-113.359814-53.299927-166.360935-22.753214l-38.315654-42.766012 27.332508-28.03552z"  horiz-adv-x="1024" />

    
    <glyph glyph-name="account" unicode="&#59014;" d="M505.046634 371.59445900000003c126.175701 0 228.845035 102.643752 228.845035 228.819452S631.221312 829.258946 505.046634 829.258946 276.227182 726.589612 276.227182 600.413911 378.870934 371.59445900000003 505.046634 371.59445900000003z m0 352.898399c68.420299 0 124.077923-55.657624 124.077924-124.077923 0-68.394716-55.657624-124.052341-124.077924-124.052341-68.394716 0-124.052341 55.657624-124.05234 124.052341-0.001023 68.420299 55.656601 124.077923 124.05234 124.077923zM900.710023 177.45894699999997l-0.358158 5.320169c-1.023306 8.721639-26.856671 213.57526-190.401467 249.051239l-22.201652-102.362342c83.921341-18.21178 105.483426-138.759297 108.219747-156.664086 0.537236-109.49888-58.189284-126.661771-74.456782-129.295762H290.115494c-46.934962 10.026354-59.545164 64.097854-61.924352 77.245292 4.168949 150.832264 58.82885 202.167442 87.39956 208.229509l-14.988366 103.640451c-6.983041-0.86981-171.243129-24.784476-177.279613-314.121233l-0.076748-3.657297 0.434905-3.606131c6.624884-55.759955 46.372144-154.669662 153.39053-171.83153l8.287756-0.665149 443.800736 0.179078c60.465117 4.935406 174.158529 61.155848 171.550121 238.537792z"  horiz-adv-x="1024" />

    
    <glyph glyph-name="language" unicode="&#59015;" d="M512 829.258946c-245.898433 0-445.234387-199.335954-445.234387-445.2262 0-244.828055 197.61066-443.487603 442.029392-445.211875 1.070378-0.050142 2.14178-0.078795 3.204995-0.078794s2.134617 0.028653 3.197832 0.071631c244.424872 1.724271 442.036555 200.392006 442.036555 445.219038-0.001023 245.89127-199.335954 445.226201-445.234387 445.2262z m0-86.22685c28.721135 0 85.487-75.441203 118.404714-186.710402H393.595286c32.917714 111.269199 89.683579 186.710402 118.404714 186.710402zM163.354462 297.79770900000005c-6.804986 27.606755-10.412141 56.471153-10.412141 86.176708 0 29.705556 3.614317 58.569954 10.412141 86.176709h124.159787a703.606923 703.606923 0 0 1-5.309936-86.176709c0-29.482475 1.861394-58.296731 5.29561-86.176708H163.354462z m33.585932-86.169545h106.75642c15.291265-59.927881 37.674041-113.187899 63.671135-156.387793-72.559573 31.969109-132.537596 87.262436-170.427555 156.387793z m106.785072 344.700693H196.940394c37.911448 69.15401 97.93245 124.475989 170.550351 156.437935-26.02677-43.207058-48.445362-96.488565-63.765279-156.437935zM512 24.91776200000004c-29.209252 0.007163-85.796038 75.441203-118.547976 186.710402h237.088789C597.796038 100.35998800000004 541.209252 24.91776200000004 512 24.91776200000004z m137.345088 272.879947H374.639562c-3.994987 27.606755-6.265704 56.463989-6.265703 86.176708 0 29.705556 2.285043 58.569954 6.301519 86.176709h274.633894c4.02364-27.606755 6.30152-56.471153 6.30152-86.176709 0-29.704532-2.270716-58.56893-6.265704-86.176708z m177.714518 258.523985H720.274534c-15.312754 59.956533-37.738509 113.230877-63.765279 156.437935 72.617901-31.954783 132.638903-87.276762 170.550351-156.437935zM656.623865 55.241394000000014c25.997094 43.199894 48.388057 96.459912 63.671135 156.387793h106.756419c-37.881772-69.12638-97.859795-124.419707-170.427554-156.387793z m79.875189 242.556315a703.637622 703.637622 0 0 1 5.295609 86.176708c0 29.482475-1.861394 58.296731-5.302773 86.176709h124.159788c6.797823-27.606755 10.412141-56.471153 10.412141-86.176709 0-29.705556-3.614317-58.569954-10.412141-86.176708H736.499054z"  horiz-adv-x="1024" />

    
    <glyph glyph-name="correct" unicode="&#59016;" d="M765.816776 646.365476L457.759655 299.545516l-199.573361 219.816405-79.767742-86.599334 199.576431-219.817428-1.335414-1.503237 79.767741-89.806375 389.154138 438.129572z"  horiz-adv-x="1024" />

    
    <glyph glyph-name="database" unicode="&#59017;" d="M904.826783 225.74365c-50.505277-47.133483-112.39586-75.502601-179.883926-94.140077-107.116623-29.577642-216.268602-34.411741-326.374302-19.718087-371.408985 49.613978-267.981381 228.099045-283.311531 5.724375-1.908466-27.669176 10.113335-48.723701 28.750811-67.742871 8.777921-8.969279 18.319228-17.365506 28.496007-24.870434 40.137139-29.705556 86.380346-47.89687 135.167493-60.745502 109.660562-28.877701 221.038232-31.740912 333.116867-16.092513 61.700247 8.651031 121.30067 24.680099 175.940104 53.685713 35.55682 18.891256 67.234287 42.10905 86.697571 76.775594a52.359508 52.359508 0 0 1 6.615675 24.171515c2.482541 133.066645 0.128937 127.977743-5.214769 122.952287zM716.101491 9.921208999999976c-21.372773 0.381693-36.82879 15.838733-36.57501 36.447097 0.318248 24.616654 23.216771 45.543266 49.550533 45.225018 21.626553-0.191358 37.465287-15.45704 37.274951-35.811624-0.25378-25.314549-23.216771-46.305629-50.250474-45.860491zM115.321492 350.09786599999995c-1.908466-27.733645 10.113335-48.723701 28.750811-67.742871 8.777921-8.968256 18.319228-17.365506 28.497031-24.870434 40.137139-29.705556 86.380346-47.89687 135.167492-60.745502 109.660562-28.877701 221.038232-31.740912 333.116867-16.092513 61.700247 8.651031 121.30067 24.680099 175.940105 53.685713 35.55682 18.891256 67.234287 42.10905 86.697571 76.839039a52.359508 52.359508 0 0 1 6.615674 24.171516c2.417049 132.941801 0.063445 127.916345-5.279236 122.890888-50.505277-47.133483-112.39586-75.502601-179.883927-94.140077-107.116623-29.577642-216.268602-34.411741-326.374302-19.719111-371.34554 49.612954-267.917936 228.098022-283.248086 5.723352z m613.756545-26.078959c21.626553-0.191358 37.465287-15.45704 37.273928-35.811624-0.254803-25.38004-23.216771-46.370097-50.250474-45.861513-21.372773 0.381693-36.82879 15.838733-36.57501 36.447096 0.318248 24.616654 23.217794 45.480844 49.551556 45.226041zM172.123172 488.890932c38.292118-29.323862 83.263355-46.49801 130.588198-58.138118 120.792087-29.641087 242.919589-31.231305 365.429806-11.640108 59.346643 9.477862 116.403127 26.143427 167.353543 57.501621 29.895891 18.382673 54.957683 41.09086 69.651336 72.131831 10.113335 21.24486 1.653663-5.915733 5.53404 121.937167 1.01819 32.821523-13.738909 57.81987-39.945781 78.047563-26.52512 20.418029-57.183374 33.584909-89.432868 43.826158-86.825484 27.669176-176.894849 35.55682-257.294994 36.7019-97.130178-0.381693-178.039929-9.414417-245.209748-26.842344-43.6348-11.386328-86.062098-25.570375-121.937167-52.667524-27.224038-20.481474-42.617633-45.988404-41.21775-79.891561 1.208525-28.750811 1.653663-57.629535-0.191358-86.380347-1.590218-25.38004 8.077979-45.988404 24.616654-64.498989 9.66615-10.876722 20.352537-21.181415 32.056089-30.087249z m545.695427-6.996345c-21.881356-0.254803-38.355563 15.45704-38.292118 36.447097 0.12689 24.361851 23.408129 46.179762 49.105395 45.988404 21.372773-0.190335 37.592177-15.58393 37.655621-35.811624 0.127913-24.679076-22.452361-46.369074-48.468898-46.623877zM198.648292 700.707129c31.549553 23.725354 69.333088 34.921347 107.752097 43.762712 98.402147 22.708188 198.266599 26.65201 298.89546 17.87409 58.583257-5.088902 116.403127-13.866822 170.915672-35.175127 19.718087-7.696286 38.610366-18.509563 55.657624-30.595832 16.347317-11.640108 15.138792-22.071691-0.254804-35.238573-21.308305-18.192338-47.515177-28.178783-74.357521-36.57501-79.574337-24.870434-161.882947-32.122605-245.209748-32.31294-82.945107 0.381693-164.999938 7.187703-243.810888 32.821523a325.027631 325.027631 0 0 0-69.078285 32.949437c-22.390963 13.865799-21.564132 26.650987-0.509607 42.48972z"  horiz-adv-x="1024" />

    
    <glyph glyph-name="report" unicode="&#59018;" d="M122.397654 328.34237599999994h111.315249v-278.287097h-111.315249zM345.028151 662.287097h111.315248v-612.230795h-111.315248zM567.657624 439.657624h111.315248v-389.601322h-111.315248zM790.287097 829.258946h111.315249v-779.203667h-111.315249zM122.397654-5.601321999999982h779.203668v-55.657624H122.397654z"  horiz-adv-x="1024" />

    
    <glyph glyph-name="import" unicode="&#59019;" d="M719.356628 829.258946H94.569866V-61.25894600000004H428.513564v111.315248H205.884091V717.944721h445.258946v-166.972872h166.972872v-166.971849h111.314225V662.287097zM651.143037 439.657624L428.513564 272.68577500000004l222.629473-222.629473V161.37052700000004h278.287097V328.34237599999994H651.143037z"  horiz-adv-x="1024" />

    
    <glyph glyph-name="master-data" unicode="&#59020;" d="M66.769262 504.491656v-240.983312h890.461476V504.491656H66.769262z m396.215449-179.688618H136.250225V439.206156h326.836814v-114.403118z m412.587988 8.186269H650.859598v40.82902h224.713101v-40.82902zM957.230738 831.32847H66.769262V590.24283h890.461476V831.32847z m-494.246027-179.790946H136.250225V765.940642h326.836814v-114.403118z m416.681123 36.735885H654.952733v40.931348h224.713101v-40.931348zM66.769262-63.32847000000004h890.461476V177.75716999999997H66.769262v-241.08564zM859.20016 112.36934099999996h40.82902v-114.403117h-40.82902V112.36934099999996z m-77.564905 0h40.82902v-114.403117h-40.82902V112.36934099999996z m-73.574098 0h40.82902v-114.403117h-40.82902V112.36934099999996z m-77.564904 0H671.325272v-114.403117h-40.829019V112.36934099999996z m-118.496253 8.18627c32.64275 0 61.294694-28.549615 61.294694-61.294694 0-36.735885-28.549615-61.294694-61.294694-61.294693-32.64275 0-61.294694 28.549615-61.294694 61.294693 0 32.64275 28.651944 61.294694 61.294694 61.294694z m-163.418407-8.18627h40.82902v-114.403117h-40.82902V112.36934099999996z m-73.47177 0h40.82902v-114.403117h-40.82902V112.36934099999996z m-73.574098 0h40.82902v-114.403117h-40.82902V112.36934099999996z m-77.564905 0H164.79984v-114.403117H123.97082V112.36934099999996z"  horiz-adv-x="1024" />

    
    <glyph glyph-name="copy" unicode="&#59021;" d="M714.610173 819.049066H267.230539v-163.111422H104.119117v-706.98671h652.650344V112.06235600000002h163.009094V655.937644L714.610173 819.049066z m-66.615769-761.323074H212.894174V547.1625859999999h54.336365V112.06235600000002h380.661537v-54.336364zM811.105826 220.83741399999997H376.005596V710.274008h271.88648v-163.111422h163.111422V220.83741399999997z"  horiz-adv-x="1024" />

    
    <glyph glyph-name="enabled" unicode="&#59022;" d="M464.417308 159.13340700000003L396.061957 236.084341l1.125612 1.330269L226.196862 425.801139l68.355351 74.188069 170.990707-188.38653 264.007195 297.263915 68.355351-74.290396zM512-61.28190300000006c-245.48576 0-445.230738 199.744979-445.230738 445.230739S266.51424 829.281903 512 829.281903s445.230738-199.744979 445.230738-445.230739-199.744979-445.333067-445.230738-445.333067z m0 785.779555c-187.772559 0-340.446487-152.776257-340.446487-340.446488s152.776257-340.446487 340.446487-340.446487S852.548816 196.27860499999997 852.548816 383.94883600000003 699.772559 724.497652 512 724.497652z"  horiz-adv-x="1024" />

    
    <glyph glyph-name="save" unicode="&#59023;" d="M66.769262-61.28190300000006V829.281903H798.212451l159.018287-159.018288v-731.443189H66.769262z m699.619066 795.091436H257.611672v-254.388328H766.490657V733.809533z m95.47237-318.036574H162.139302v-413.406615h699.721396v413.406615zM798.212451 320.402918H225.787549v63.648246H798.212451v-63.648246z m0-127.194164H225.787549v63.648246H798.212451V193.208754z m0-127.194164H225.787549v63.648246H798.212451v-63.648246zM607.370041 702.087739h95.370041v-190.842411h-95.370041V702.087739z"  horiz-adv-x="1024" />

    
    <glyph glyph-name="shrink" unicode="&#59024;" d="M122.435895 217.05126399999995h143.873688l-199.540321-199.540322 78.690516-78.792845 199.540322 199.64265v-143.976016l111.333267-1.227941V328.38453100000004H121.105626zM901.564105 217.05126399999995l1.330269 111.333267H567.666633v-335.227741l111.333267 1.227941V138.36074699999995l199.540322-199.64265 78.690516 78.792845-199.540321 199.540322zM345.0001 629.639253L145.459778 829.281903l-78.690516-78.690517 199.540321-199.64265H122.435895l-1.330269-111.333267h335.227741V774.84321l-111.333267-1.227941zM901.564105 550.948736H757.690417l199.540321 199.64265-78.690516 78.690517-199.540322-199.64265V773.615269l-111.333267 1.227941v-335.227741h335.227741z"  horiz-adv-x="1024" />

    
    <glyph glyph-name="magnify" unicode="&#59025;" d="M845.897472 128.74188100000003L666.618167 308.123514l-78.690516-78.690517 179.279304-179.381633H623.333267l-1.330269-111.333267h335.22774V273.945838l-111.333266-1.227941zM622.002998 829.281903l1.330269-111.333267h143.873688l-199.540322-199.540322 78.690517-78.792845 199.540322 199.64265v-143.976016l111.333266-1.227941V829.281903zM377.64285 328.38453100000004L178.102528 128.74188100000003V272.717897l-111.333266 1.227941v-335.227741h335.22774l-1.330269 111.333267H256.793045l199.540322 199.64265zM400.666733 717.948636l1.330269 111.333267H66.769262V494.054162L178.102528 495.282103V639.2581190000001l219.801339-219.801339 78.690517 78.690517L256.793045 717.948636z"  horiz-adv-x="1024" />

    
    <glyph glyph-name="disabled" unicode="&#59026;" d="M512 829.281903c-245.48576 0-445.230738-199.744979-445.230738-445.230739s199.744979-445.230738 445.230738-445.230738 445.230738 199.744979 445.230738 445.230738S757.48576 829.281903 512 829.281903z m0-104.784251c76.439292 0 146.841211-25.684421 203.735785-68.355352l-475.826921-475.929249c-42.67093 56.894574-68.355351 127.296492-68.355351 203.735785 0 187.772559 152.673928 340.548816 340.446487 340.548816z m0-680.995304c-71.118217 0-137.222344 22.0006-191.865694 59.452783L792.993704 575.916858c37.452183-54.64335 59.452783-120.747477 59.452783-191.968022 0-187.670231-152.673928-340.446487-340.446487-340.446488z"  horiz-adv-x="1024" />

    
    <glyph glyph-name="ready" unicode="&#59027;" d="M508.623164 830.509843L65.336664 608.866593v-668.818227h89.434996v622.156491h711.591486v-622.156491h89.537324V608.866593zM598.058159 383.33486600000003H419.188168v89.434995h-174.981513v-536.609973h532.721495V472.769861H598.058159v-89.434995zM465.849905 161.69161599999995v-132.208254h-89.434995V161.69161599999995H333.641651l89.434995 89.434995 89.434996-89.434995h-46.661737z"  horiz-adv-x="1024" />

    
    <glyph glyph-name="setting" unicode="&#59028;" d="M955.90047 418.638153l-150.115719 85.546518 52.08514 150.115719-66.718097 66.718097-146.022584-47.992006L572.169082 821.095633H461.552114l-64.67153-158.506645-166.795244 58.429499-70.91356-70.91356 41.749975-162.702109-135.585091-68.866993v-106.319177l158.506646-72.960128-45.84311-141.827121 70.91356-70.91356 173.139603 41.749975 56.280603-120.952134h93.835116l60.476066 120.952134 147.045868-30.289198 67.741381 67.741381-39.601079 158.608974 148.069152 70.913561v83.397621zM509.544119 187.17138c-102.430699 0-185.521335 83.090637-185.521335 185.521335s83.090637 185.521335 185.521335 185.521335S695.065454 475.123414 695.065454 372.692715s-82.988308-185.521335-185.521335-185.521335z"  horiz-adv-x="1024" />

    
    <glyph glyph-name="operation" unicode="&#59029;" d="M955.90047 167.21734800000002l-74.392725 42.363945 25.786749 74.392725-33.052064 33.052064-72.243829-23.740182-36.121915 73.369441h-54.745678l-32.02878-78.48586-82.578994 28.958929-35.098631-35.098631 20.670331-80.532427-67.127411-34.075347v-52.699111l78.48586-36.121915-22.716899-70.197262 35.098631-35.098631 85.751175 20.670331 27.833316-59.862096h46.45708l29.982213 59.862096 72.755471-14.939942 33.563705 33.563706-19.647047 78.485859 73.369442 35.098631v41.033677z m-221.02928-122.589388c-55.154992 0-99.872489 44.717498-99.872489 99.87249 0 55.154992 44.717498 99.872489 99.872489 99.872489 55.154992 0 99.872489-44.717498 99.872489-99.872489 0-55.154992-44.717498-99.872489-99.872489-99.87249zM627.324073 776.68512h-56.280603v56.178276H346.330369v-56.178276h-56.178275v-112.35655H627.324073V776.68512zM514.865194 720.506845H402.508644V776.68512h112.35655v-56.178275zM852.037174 720.506845H683.502348V608.150295H233.973818V720.506845H65.336664V-66.19366400000001h335.94404c-1.125612 510.41391 186.237634 510.925552 450.75647 510.925552V720.506845zM346.330369 214.69771200000002H177.693215v56.178275h168.534825v-56.178275z m56.178275 112.458878H177.693215v56.178276h224.815429v-56.178276z m112.35655 112.356551H177.693215v56.178275h337.171979v-56.178275z"  horiz-adv-x="1024" />

    
    <glyph glyph-name="favorite" unicode="&#59030;" d="M510.567403 807.178975l137.631658-278.742481 307.701409-44.717497-222.666534-217.038473 52.596782-306.371141-275.263315 144.589987L235.406416-39.690616999999975l52.596782 306.371141-222.666534 217.038473 307.701409 44.717497z"  horiz-adv-x="1024" />

    


  </font>
</defs>
</svg>
